<svg xmlns="http://www.w3.org/2000/svg" viewBox="0 0 374.17 872"><defs><style>.cls-1{fill:#282d6a;}.cls-2{fill:#8c236f;}.cls-3{fill:#fff6ed;}.cls-4{fill:#b3e2f1;}</style></defs><g id="Layer_2" data-name="Layer 2"><g id="Layer_1-2" data-name="Layer 1"><path class="cls-1" d="M374.17,0c-57.51,20.55-132.89,57-152,119.1C206,171.42,244.78,193.25,232.6,245,210.78,337.58,70.75,333.86,18,429.25c-52.33,94.71,23.49,211,47.1,247.22,94.07,144.28,268.26,186.6,309,195.53Z"/><path class="cls-2" d="M372.11,97.64c-36.48,16.12-84.3,44.69-96.45,93.43-10.23,41,14.37,58.16,6.64,98.73-13.84,72.66-102.67,69.74-136.11,144.56-33.2,74.3,14.9,165.53,29.88,193.94,59.68,113.18,170.18,146.37,196,153.38Z"/><path class="cls-3" d="M284.78,414.38c-32.39-7.33-85.17,53.07-83.74,110.38.61,24.25,10.78,42.38,19,57.09,14.89,26.56,51.59,75.74,78,68.52,30.52-8.34,33.39-88,28.54-133.22C324,492.19,316.39,421.54,284.78,414.38Z"/><path class="cls-4" d="M276.42,463.67c-18.86-4.27-49.61,30.91-48.77,64.29.35,14.12,6.28,24.69,11.08,33.26,8.68,15.46,30,44.11,45.45,39.9,17.78-4.85,19.45-51.27,16.63-77.59C299.25,509,294.83,467.84,276.42,463.67Z"/></g></g></svg>