<svg xmlns="http://www.w3.org/2000/svg" width="17.642" height="21.175" viewBox="0 0 17.642 21.175"><path d="M19.848,10.821c-1.852,0-2.635.91-3.925.91-1.323,0-2.332-.9-3.936-.9a5.348,5.348,0,0,0-4.311,2.668c-1.494,2.371-1.24,6.836,1.18,10.64.866,1.362,2.023,2.889,3.539,2.905h.028c1.318,0,1.709-.888,3.523-.9h.028c1.786,0,2.144.893,3.457.893h.028c1.516-.017,2.734-1.709,3.6-3.065A15.079,15.079,0,0,0,24.391,21.4a4.717,4.717,0,0,1-.6-8.429,5.184,5.184,0,0,0-3.942-2.15Z" transform="translate(-6.748 -5.865)" fill="#fff"/><path d="M21.775,4.5a4.821,4.821,0,0,0-3.142,1.742,4.385,4.385,0,0,0-1.025,3.352H17.7a4.092,4.092,0,0,0,3.076-1.659,4.7,4.7,0,0,0,1-3.434Z" transform="translate(-9.083 -4.5)" fill="#fff"/></svg>