<svg xmlns="http://www.w3.org/2000/svg" viewBox="0 0 227.01 140.4"><defs><style>.cls-1{fill:#f2f5fb;}</style></defs><g id="Layer_2" data-name="Layer 2"><g id="Layer_2-2" data-name="Layer 2"><path class="cls-1" d="M170.46,29c-5.7,0-11.42-2.55-17-7.6-29-25.93-51.53-25.93-80.45,0-5.75,5.26-11.75,7.75-17.83,7.42C46,28.31,40.1,21.64,39.85,21.36l.75-.66c.06.06,5.93,6.64,14.64,7.12,5.79.32,11.54-2.09,17.09-7.16C87.46,7.09,100.63.83,113.73,1c12.74.16,25.58,6.4,40.39,19.66C160,25.93,165.9,28.39,171.8,28c8.51-.63,14-7.17,14-7.24l.77.64c-.23.28-5.8,6.94-14.73,7.6C171.4,29,170.93,29,170.46,29Z"/><path class="cls-1" d="M170.46,30c-6,0-11.91-2.64-17.68-7.86-28.49-25.49-50.67-25.49-79.11,0-6,5.44-12.19,8-18.55,7.67-9.57-.53-15.76-7.5-16-7.8l-.66-.75,2.26-2,.66.75c0,.06,5.71,6.33,13.93,6.78,5.52.31,11-2,16.37-6.9C87,6.15,100.39-.18,113.75,0c13,.16,26,6.49,41,19.91,5.63,5.09,11.33,7.46,16.94,7,8-.59,13.29-6.82,13.34-6.88l.64-.76,2.31,1.9-.63.77c-.25.3-6.08,7.27-15.44,8C171.45,30,171,30,170.46,30Z"/><path class="cls-1" d="M169.46,56c-5.7,0-11.42-2.55-17-7.6-29-25.93-51.53-25.93-80.45,0-5.75,5.26-11.75,7.75-17.83,7.42C45,55.31,39.1,48.64,38.85,48.36l.75-.66c.06.06,5.93,6.64,14.64,7.12,5.79.32,11.54-2.09,17.09-7.16C86.46,34.09,99.6,27.86,112.73,28c12.74.16,25.58,6.4,40.39,19.66C159,52.93,164.9,55.38,170.8,55c8.51-.63,14-7.17,14-7.24l.77.64c-.23.28-5.8,6.94-14.73,7.6C170.4,56,169.93,56,169.46,56Z"/><path class="cls-1" d="M169.46,57c-6,0-11.91-2.64-17.68-7.86-28.49-25.49-50.67-25.49-79.11,0-5.94,5.44-12.19,8-18.55,7.67-9.57-.53-15.76-7.5-16-7.8l-.66-.75,2.26-2,.66.75c0,.06,5.71,6.33,13.93,6.78,5.52.3,11-2,16.37-6.9C86,33.18,99.38,26.88,112.75,27c13,.16,26,6.48,41,19.91,5.63,5.09,11.32,7.46,16.94,7,8-.59,13.29-6.82,13.34-6.88l.64-.76,2.31,1.9-.63.77c-.25.3-6.08,7.27-15.44,8C170.45,57,170,57,169.46,57Z"/><path class="cls-1" d="M170.46,83c-5.7,0-11.42-2.55-17-7.6-29-25.93-51.53-25.93-80.45,0-5.75,5.26-11.75,7.75-17.83,7.42C46,82.31,40.1,75.64,39.85,75.36l.75-.66c.06.06,5.93,6.64,14.64,7.12,5.79.32,11.54-2.09,17.09-7.16,15.13-13.57,28.3-19.82,41.4-19.66,12.74.16,25.58,6.4,40.39,19.66C160,79.93,165.9,82.39,171.8,82c8.51-.63,14-7.17,14-7.24l.77.64c-.23.28-5.8,6.94-14.73,7.6C171.4,83,170.93,83,170.46,83Z"/><path class="cls-1" d="M170.46,84c-6,0-11.91-2.64-17.68-7.86-28.49-25.5-50.67-25.49-79.11,0-5.94,5.44-12.18,8-18.55,7.67-9.57-.53-15.76-7.5-16-7.8l-.66-.75,2.26-2,.66.75c0,.06,5.71,6.33,13.93,6.78,5.52.3,11-2,16.37-6.9C87,60.17,100.35,53.82,113.75,54c13,.16,26,6.48,41,19.91,5.63,5.09,11.33,7.46,16.94,7,8-.59,13.29-6.82,13.34-6.88l.64-.76,2.31,1.9-.63.77c-.25.3-6.08,7.27-15.44,8C171.45,84,171,84,170.46,84Z"/><path class="cls-1" d="M0,102.25H8.65a16.49,16.49,0,0,1,3.32.34,9.23,9.23,0,0,1,3,1.17A6.53,6.53,0,0,1,17.16,106a6.82,6.82,0,0,1,.84,3.54,6,6,0,0,1-1.4,3.93,6.67,6.67,0,0,1-3.75,2.19v.08a7.74,7.74,0,0,1,4.68,2.15,6.68,6.68,0,0,1,1.86,5,7,7,0,0,1-.75,3.24,7.06,7.06,0,0,1-2.15,2.5,10.39,10.39,0,0,1-3.4,1.59,16.45,16.45,0,0,1-4.5.56H0Zm3,12.47h6a10,10,0,0,0,2.15-.24,6,6,0,0,0,2-.82,4.5,4.5,0,0,0,1.45-1.55,4.73,4.73,0,0,0,.56-2.38A4.34,4.34,0,0,0,13,105.87a6.69,6.69,0,0,0-2.22-.87,13.67,13.67,0,0,0-2.7-.26H3Zm0,13.53h5.5a15.1,15.1,0,0,0,3.05-.3A7.91,7.91,0,0,0,14,127a5.17,5.17,0,0,0,1.75-1.73,5.45,5.45,0,0,0-1.3-6.76A9.35,9.35,0,0,0,9,117.1H3Z"/><path class="cls-1" d="M25.87,114.08c0-.8-.07-1.53-.12-2.17h2.66c.06.51.1,1.07.13,1.69s0,1.12,0,1.53h.08a6.46,6.46,0,0,1,2.46-2.68,6.83,6.83,0,0,1,3.69-1c.35,0,.67,0,1,0a4.71,4.71,0,0,1,.88.17l-.37,2.61a5.07,5.07,0,0,0-.82-.16,8.74,8.74,0,0,0-1.14-.08,5.81,5.81,0,0,0-2.14.4,4.6,4.6,0,0,0-1.78,1.27,6.4,6.4,0,0,0-1.23,2.21,9.88,9.88,0,0,0-.47,3.23v9.63H25.91V116.05C25.91,115.54,25.9,114.89,25.87,114.08Z"/><path class="cls-1" d="M58.14,120.76v.61c0,.21,0,.44,0,.68H42.19a7.2,7.2,0,0,0,.57,2.66,6.8,6.8,0,0,0,1.48,2.17,7.34,7.34,0,0,0,8.71,1,7.54,7.54,0,0,0,2.4-2.28l2.09,1.61a10.33,10.33,0,0,1-3.79,3.06,10.75,10.75,0,0,1-4.45.93,10.34,10.34,0,0,1-4-.75,9.25,9.25,0,0,1-3.13-2.07A9.65,9.65,0,0,1,40,125.27a10,10,0,0,1-.76-3.94,10.21,10.21,0,0,1,.74-4,9.51,9.51,0,0,1,8.93-6,9.88,9.88,0,0,1,4,.75,8.33,8.33,0,0,1,2.87,2,8.61,8.61,0,0,1,1.74,3A10.74,10.74,0,0,1,58.14,120.76Zm-2.83-.88a6.72,6.72,0,0,0-1.74-4.41A6,6,0,0,0,49,113.72a6.63,6.63,0,0,0-2.58.5,6.91,6.91,0,0,0-3.53,3.34,6.29,6.29,0,0,0-.61,2.32Z"/><path class="cls-1" d="M76.22,118.55a4.7,4.7,0,0,0-1.31-3.63,5.49,5.49,0,0,0-3.82-1.2,8.44,8.44,0,0,0-3.2.6,7.74,7.74,0,0,0-2.5,1.61l-1.55-1.81A9.12,9.12,0,0,1,67,112.19a12,12,0,0,1,4.41-.77,9.44,9.44,0,0,1,2.91.43,7.06,7.06,0,0,1,2.38,1.26,5.94,5.94,0,0,1,1.6,2.14,7.4,7.4,0,0,1,.57,3v8.25c0,.72,0,1.47.08,2.25a16.09,16.09,0,0,0,.25,2h-2.5c-.08-.45-.15-1-.21-1.49s-.08-1.05-.08-1.56H76.3a8.11,8.11,0,0,1-3,2.71,8.92,8.92,0,0,1-4,.83,8.74,8.74,0,0,1-2.28-.31,6.47,6.47,0,0,1-2.13-1,5.85,5.85,0,0,1-1.6-1.78,5.27,5.27,0,0,1-.63-2.67A5,5,0,0,1,63.81,122a6.84,6.84,0,0,1,3-1.9,18.34,18.34,0,0,1,4.32-.81q2.44-.18,5.07-.18Zm-.82,2.78c-1.15,0-2.31,0-3.47.14a15.14,15.14,0,0,0-3.15.56,5.9,5.9,0,0,0-2.32,1.23,2.7,2.7,0,0,0-.9,2.13,3.35,3.35,0,0,0,.39,1.69,3.17,3.17,0,0,0,1,1.11,4.59,4.59,0,0,0,1.46.6,7.31,7.31,0,0,0,1.62.18,6.38,6.38,0,0,0,2.62-.5,5.55,5.55,0,0,0,1.93-1.37,6.17,6.17,0,0,0,1.19-2,7,7,0,0,0,.41-2.38v-1.4Z"/><path class="cls-1" d="M94.67,114.2H89.26v11a6,6,0,0,0,.2,1.73,2.49,2.49,0,0,0,.59,1.07,2,2,0,0,0,.93.52,4.62,4.62,0,0,0,1.14.14,4.74,4.74,0,0,0,1.21-.16,6,6,0,0,0,1.21-.44l.13,2.37a8,8,0,0,1-1.54.42,9.4,9.4,0,0,1-1.74.15,6.89,6.89,0,0,1-1.64-.21,4,4,0,0,1-1.6-.76,4.24,4.24,0,0,1-1.21-1.53,5.73,5.73,0,0,1-.47-2.54V114.2h-4v-2.29h4v-5.32h2.79v5.32h5.41Z"/><path class="cls-1" d="M102,115a5.7,5.7,0,0,1,2.59-2.62,8.06,8.06,0,0,1,3.85-1,6.81,6.81,0,0,1,5.48,2.14,8.39,8.39,0,0,1,1.82,5.63v11.55h-2.79V120.32a14,14,0,0,0-.24-2.7,5.85,5.85,0,0,0-.84-2.07,4,4,0,0,0-1.6-1.35,5.85,5.85,0,0,0-2.53-.48,5.59,5.59,0,0,0-2.15.44,5.38,5.38,0,0,0-1.86,1.35,6.7,6.7,0,0,0-1.32,2.29,10.07,10.07,0,0,0-.49,3.28v9.66H99.09V100.31h2.79V115Z"/><path class="cls-1" d="M133.12,116.38a4.89,4.89,0,0,0-1.86-1.92,5.53,5.53,0,0,0-2.85-.74,6.84,6.84,0,0,0-1.48.16,4.13,4.13,0,0,0-1.31.52,2.82,2.82,0,0,0-.92.93,2.49,2.49,0,0,0-.35,1.33,2.27,2.27,0,0,0,1.11,2,11,11,0,0,0,3.48,1.19,11.68,11.68,0,0,1,5,2,4.29,4.29,0,0,1,1.62,3.52,5.44,5.44,0,0,1-.63,2.72,5.55,5.55,0,0,1-1.66,1.81,6.81,6.81,0,0,1-2.32,1,10.94,10.94,0,0,1-2.6.31,10.52,10.52,0,0,1-4.22-.89,7.76,7.76,0,0,1-3.37-2.78L123,126a5.93,5.93,0,0,0,2.17,2.1,6.15,6.15,0,0,0,3.16.84,8.73,8.73,0,0,0,1.72-.16,3.79,3.79,0,0,0,1.43-.56,3.14,3.14,0,0,0,1-1,3,3,0,0,0,.37-1.55,2.38,2.38,0,0,0-1.46-2.23,19.09,19.09,0,0,0-4.2-1.39c-.57-.13-1.18-.3-1.83-.5a6.6,6.6,0,0,1-1.78-.89,4.75,4.75,0,0,1-1.35-1.47,4.18,4.18,0,0,1-.53-2.21,5.05,5.05,0,0,1,.57-2.48,4.89,4.89,0,0,1,1.54-1.69,6.82,6.82,0,0,1,2.19-1,9.78,9.78,0,0,1,2.54-.33,9.11,9.11,0,0,1,3.9.89,6.29,6.29,0,0,1,2.83,2.49Z"/><path class="cls-1" d="M154.94,116.21a5.4,5.4,0,0,0-2-1.79,6.11,6.11,0,0,0-2.89-.7,7.56,7.56,0,0,0-3,.58,6.89,6.89,0,0,0-3.79,4,8.59,8.59,0,0,0-.51,3,8.42,8.42,0,0,0,.51,3,7.37,7.37,0,0,0,1.45,2.4,6.77,6.77,0,0,0,2.3,1.61,7.55,7.55,0,0,0,3,.58,6.14,6.14,0,0,0,5.21-2.45l2.09,1.53a9.11,9.11,0,0,1-3,2.37,9.57,9.57,0,0,1-4.29.89,11.37,11.37,0,0,1-4.22-.75,9.17,9.17,0,0,1-5.29-5.21,10.89,10.89,0,0,1,0-7.89,9.34,9.34,0,0,1,2.07-3.14,9.49,9.49,0,0,1,3.22-2.07,11.37,11.37,0,0,1,4.22-.75,10.19,10.19,0,0,1,3.92.83,7.64,7.64,0,0,1,3.22,2.43Z"/><path class="cls-1" d="M173.71,118.55a4.66,4.66,0,0,0-1.31-3.63,5.44,5.44,0,0,0-3.81-1.2,8.4,8.4,0,0,0-3.2.6,7.64,7.64,0,0,0-2.5,1.61l-1.56-1.81a9.17,9.17,0,0,1,3.14-1.93,12,12,0,0,1,4.41-.77,9.53,9.53,0,0,1,2.91.43,6.92,6.92,0,0,1,2.37,1.26,5.72,5.72,0,0,1,1.6,2.14,7.23,7.23,0,0,1,.58,3v8.25c0,.72,0,1.47.08,2.25a14.34,14.34,0,0,0,.25,2h-2.51c-.08-.45-.15-1-.2-1.49a13.82,13.82,0,0,1-.08-1.56h-.08a8.06,8.06,0,0,1-3,2.71,8.87,8.87,0,0,1-4,.83,8.74,8.74,0,0,1-2.28-.31,6.47,6.47,0,0,1-2.13-1,5.72,5.72,0,0,1-1.6-1.78,5.28,5.28,0,0,1-.64-2.67,5,5,0,0,1,1.13-3.45,6.81,6.81,0,0,1,3-1.9,18.33,18.33,0,0,1,4.33-.81c1.63-.12,3.31-.18,5.06-.18Zm-.82,2.78c-1.14,0-2.3,0-3.46.14a15.36,15.36,0,0,0-3.16.56,5.92,5.92,0,0,0-2.31,1.23,2.68,2.68,0,0,0-.91,2.13,3.35,3.35,0,0,0,.39,1.69,3.11,3.11,0,0,0,1.05,1.11,4.54,4.54,0,0,0,1.45.6,7.45,7.45,0,0,0,1.62.18,6.43,6.43,0,0,0,2.63-.5,5.51,5.51,0,0,0,1.92-1.37,6,6,0,0,0,1.19-2,6.73,6.73,0,0,0,.41-2.38v-1.4Z"/><path class="cls-1" d="M186.3,140.4h-2.79V111.91h2.79v3.26h.12a7.62,7.62,0,0,1,3.18-2.8,9.34,9.34,0,0,1,4-1,10.48,10.48,0,0,1,4.08.77,9.45,9.45,0,0,1,3.12,2.09,9.32,9.32,0,0,1,2,3.14,10.95,10.95,0,0,1,0,7.81,9.32,9.32,0,0,1-2,3.14,9.45,9.45,0,0,1-3.12,2.09,10.48,10.48,0,0,1-4.08.77,9.34,9.34,0,0,1-4-.95,7.79,7.79,0,0,1-3.18-2.72h-.12Zm14.31-19.07a8.71,8.71,0,0,0-.49-3A7.13,7.13,0,0,0,198.7,116a6.64,6.64,0,0,0-2.27-1.63,7.52,7.52,0,0,0-3.08-.6,7.36,7.36,0,0,0-2.95.58,7.24,7.24,0,0,0-2.34,1.61,7.55,7.55,0,0,0-1.53,2.42,8.29,8.29,0,0,0,0,6,7.25,7.25,0,0,0,1.53,2.4,7.3,7.3,0,0,0,5.29,2.17,7.69,7.69,0,0,0,3.08-.58,6.46,6.46,0,0,0,2.27-1.61,7.13,7.13,0,0,0,1.42-2.42A8.7,8.7,0,0,0,200.61,121.33Z"/><path class="cls-1" d="M227,120.76v.61a5.49,5.49,0,0,1,0,.68H211.06a7.21,7.21,0,0,0,.58,2.66,6.77,6.77,0,0,0,1.47,2.17,7,7,0,0,0,2.22,1.47,7,7,0,0,0,2.75.54,7,7,0,0,0,3.75-1,7.54,7.54,0,0,0,2.4-2.28l2.09,1.61a10.36,10.36,0,0,1-3.8,3.06,10.71,10.71,0,0,1-4.44.93,10.27,10.27,0,0,1-4-.75,9.29,9.29,0,0,1-3.14-2.07,10,10,0,0,1-2.07-3.14,10.21,10.21,0,0,1-.76-3.94,10.4,10.4,0,0,1,.74-4,9.53,9.53,0,0,1,8.94-6,9.91,9.91,0,0,1,4,.75,8.43,8.43,0,0,1,2.87,2,8.77,8.77,0,0,1,1.74,3A11,11,0,0,1,227,120.76Zm-2.83-.88a6.72,6.72,0,0,0-1.74-4.41,6,6,0,0,0-4.61-1.75,6.63,6.63,0,0,0-2.58.5,6.91,6.91,0,0,0-3.53,3.34,6.1,6.1,0,0,0-.61,2.32Z"/></g></g></svg>