<svg xmlns="http://www.w3.org/2000/svg" width="43.788" height="58.385" viewBox="0 0 43.788 58.385"><path d="M41.052,7.3a2.737,2.737,0,0,0,2.737-2.737V2.737A2.737,2.737,0,0,0,41.052,0H2.737A2.737,2.737,0,0,0,0,2.737V4.561A2.737,2.737,0,0,0,2.737,7.3c0,10.373,5.817,19.127,13.78,21.894C8.554,31.959,2.737,40.714,2.737,51.087A2.737,2.737,0,0,0,0,53.823v1.825a2.737,2.737,0,0,0,2.737,2.737H41.052a2.737,2.737,0,0,0,2.737-2.737V53.823a2.737,2.737,0,0,0-2.737-2.737c0-10.373-5.817-19.127-13.78-21.894C35.234,26.425,41.052,17.671,41.052,7.3ZM21.894,23.719c-6.59,0-11.859-7.585-11.859-16.421H33.754C33.754,16.186,28.45,23.719,21.894,23.719Z" fill="#8c236f"/></svg>