<svg xmlns="http://www.w3.org/2000/svg" width="75.303" height="75.249" viewBox="0 0 75.303 75.249"><g transform="translate(-3.375 -3.368)"><path d="M64.366,36.351c-4.831,0-10.874,1.248-15.614,2.443a7.669,7.669,0,0,0-.669-1.646c4.2-2.5,9.354-5.88,12.756-9.3,6.64-6.64,8.739-11.507,6.8-13.443a2.5,2.5,0,0,0-1.864-.688c-2.5,0-6.513,2.424-11.579,7.49-3.4,3.4-6.8,8.54-9.3,12.737a8.31,8.31,0,0,0-1.646-.688c1.212-4.74,2.443-10.765,2.443-15.578,0-9.39-1.954-14.311-4.7-14.311s-4.7,4.921-4.7,14.311c0,4.813,1.23,10.856,2.443,15.578a7.727,7.727,0,0,0-1.646.688c-2.5-4.2-5.88-9.336-9.3-12.737-5.066-5.066-9.1-7.49-11.579-7.49a2.571,2.571,0,0,0-1.864.688c-1.954,1.954.145,6.8,6.8,13.443,3.42,3.42,8.558,6.8,12.756,9.3a8.261,8.261,0,0,0-.669,1.646c-4.74-1.212-10.783-2.443-15.614-2.443-9.372,0-14.239,1.918-14.239,4.668s4.867,4.74,14.275,4.74c4.831,0,10.892-1.248,15.632-2.461a7.584,7.584,0,0,0,.688,1.628c-4.216,2.5-9.372,5.9-12.792,9.318-6.64,6.64-8.739,11.507-6.8,13.443a2.5,2.5,0,0,0,1.864.688c2.5,0,6.513-2.424,11.579-7.49,3.42-3.42,6.839-8.594,9.336-12.81a8.1,8.1,0,0,0,1.628.669c-1.212,4.74-2.461,10.82-2.461,15.65,0,9.39,1.954,14.221,4.7,14.221s4.7-4.831,4.7-14.221c0-4.849-1.248-10.91-2.461-15.65a7.918,7.918,0,0,0,1.628-.669c2.5,4.216,5.9,9.39,9.336,12.81,5.066,5.066,9.1,7.49,11.579,7.49a2.571,2.571,0,0,0,1.864-.688c1.954-1.954-.145-6.8-6.8-13.443-3.42-3.42-8.594-6.821-12.792-9.318A8.149,8.149,0,0,0,48.77,43.3c4.74,1.212,10.8,2.461,15.632,2.461,9.39,0,14.275-1.954,14.275-4.7C78.642,38.305,73.775,36.351,64.366,36.351Z" fill="#8c236f"/><path d="M25.131,29.729a46.223,46.223,0,0,1-4.487-5.337,47.434,47.434,0,0,1,.6,6.948,51.7,51.7,0,0,1-.289,5.808c2.225,3.944,4.4,5.916,6.152,5.916a2.292,2.292,0,0,0,.85-.163c1.99-.814,2.406-4.216.814-9.824C27.61,32.117,26.4,31,25.131,29.729Z" transform="translate(27.167 33.074)" fill="#8c236f"/><path d="M16.458,17.733a47.186,47.186,0,0,1,4.451,5.283,47.054,47.054,0,0,1-.579-6.911,51.7,51.7,0,0,1,.289-5.808c-2.225-3.944-4.4-5.916-6.152-5.916a2.292,2.292,0,0,0-.85.163c-1.99.814-2.406,4.216-.814,9.824C13.961,15.345,15.191,16.467,16.458,17.733Z" transform="translate(13.297 1.593)" fill="#8c236f"/><path d="M17.7,25.145a46.224,46.224,0,0,1,5.337-4.487,47.433,47.433,0,0,1-6.948.6,51.7,51.7,0,0,1-5.808-.289c-4.614,2.605-6.532,5.1-5.754,7,.47,1.158,1.827,1.791,4,1.791a21.824,21.824,0,0,0,5.826-.977C15.334,27.624,16.438,26.411,17.7,25.145Z" transform="translate(1.556 27.201)" fill="#8c236f"/><path d="M29.715,16.447a46.223,46.223,0,0,1-5.337,4.487,47.434,47.434,0,0,1,6.948-.6,51.7,51.7,0,0,1,5.808.289c4.614-2.605,6.532-5.1,5.754-7-.47-1.158-1.827-1.791-4-1.791a21.824,21.824,0,0,0-5.826.977C32.085,13.987,30.981,15.2,29.715,16.447Z" transform="translate(33.041 13.318)" fill="#8c236f"/><path d="M16.758,29.718a53.358,53.358,0,0,1-4.306,3.908c-1.411,5.1-1,8.214.887,9.028a2.161,2.161,0,0,0,.887.181c1.864,0,4.2-2.171,6.64-6.55-.127-1.52-.2-3.166-.2-4.939a47.434,47.434,0,0,1,.6-6.948A49.667,49.667,0,0,1,16.758,29.718Z" transform="translate(12.96 33.085)" fill="#8c236f"/><path d="M25.142,17.618a52.87,52.87,0,0,1,4.288-3.89c1.429-5.138,1.031-8.287-.868-9.083a2.161,2.161,0,0,0-.887-.181c-1.864,0-4.2,2.171-6.64,6.55.127,1.52.2,3.166.2,4.939a48.36,48.36,0,0,1-.6,7A49.927,49.927,0,0,1,25.142,17.618Z" transform="translate(27.156 1.726)" fill="#8c236f"/><path d="M11.016,20.875c1.52-.127,3.166-.2,4.939-.2a47.2,47.2,0,0,1,6.93.6,47.564,47.564,0,0,1-5.319-4.487,54.185,54.185,0,0,1-3.926-4.324,20.2,20.2,0,0,0-5.175-.832c-2.063,0-3.365.6-3.836,1.719C3.8,15.321,5.913,18.035,11.016,20.875Z" transform="translate(1.695 12.997)" fill="#8c236f"/><path d="M36.264,21.056c-1.52.127-3.166.2-4.939.2a47.434,47.434,0,0,1-6.948-.6,48.115,48.115,0,0,1,5.337,4.487,56.982,56.982,0,0,1,3.908,4.306,19.667,19.667,0,0,0,5.175.85c2.063,0,3.365-.6,3.836-1.719C43.483,26.592,41.367,23.9,36.264,21.056Z" transform="translate(33.041 27.201)" fill="#8c236f"/></g></svg>